<svg xmlns="http://www.w3.org/2000/svg" xmlns:xlink="http://www.w3.org/1999/xlink" width="1366" zoomAndPan="magnify" viewBox="0 0 1024.5 576" height="768" preserveAspectRatio="xMidYMid meet" version="1.0"><defs><clipPath id="89c529dffe"><path d="M 512 99.316406 L 648.433594 99.316406 L 648.433594 476.382812 L 512 476.382812 Z M 512 99.316406 " clip-rule="nonzero"/></clipPath></defs><g clip-path="url(#89c529dffe)"><path fill="#000000" d="M 648.742188 430.664062 C 648.746094 442.949219 643.96875 454.5 635.285156 463.191406 C 626.605469 471.882812 615.058594 476.671875 602.773438 476.675781 C 596.664062 476.679688 590.824219 475.484375 585.484375 473.308594 C 568.664062 466.46875 556.773438 449.957031 556.761719 430.710938 L 556.683594 265.539062 C 556.679688 260.113281 561.078125 255.710938 566.503906 255.707031 C 571.929688 255.71875 576.335938 260.105469 576.339844 265.53125 L 576.417969 430.699219 C 576.425781 445.222656 588.25 457.039062 602.765625 457.019531 C 609.800781 457.015625 616.410156 454.273438 621.378906 449.296875 C 626.351562 444.320312 629.085938 437.707031 629.082031 430.675781 L 628.957031 167.285156 C 628.945312 140.640625 607.253906 118.980469 580.613281 118.984375 C 554.164062 118.996094 532.648438 140.367188 532.34375 166.742188 L 512.027344 166.027344 C 513.171875 146.820312 521.707031 130.109375 532.542969 119.261719 C 545.378906 106.414062 562.445312 99.335938 580.605469 99.324219 C 598.761719 99.316406 615.835938 106.382812 628.683594 119.214844 C 641.527344 132.050781 648.605469 149.117188 648.617188 167.273438 Z M 648.742188 430.664062 " fill-opacity="1" fill-rule="nonzero"/></g></svg>