<svg xmlns="http://www.w3.org/2000/svg" xmlns:xlink="http://www.w3.org/1999/xlink" width="1366" zoomAndPan="magnify" viewBox="0 0 1024.5 576" height="768" preserveAspectRatio="xMidYMid meet" version="1.0"><defs><clipPath id="7f345453a4"><path d="M 361.464844 123.433594 L 662.816406 123.433594 L 662.816406 424.785156 L 361.464844 424.785156 Z M 361.464844 123.433594 " clip-rule="nonzero"/></clipPath></defs><g clip-path="url(#7f345453a4)"><path stroke-linecap="butt" transform="matrix(0.865367, 0, 0, 0.862932, 320.018072, 123.396448)" fill-opacity="1" fill="#ffffff" fill-rule="nonzero" stroke-linejoin="miter" d="M 395.331577 174.498164 C 395.331577 270.595823 317.650488 348.500609 221.832226 348.500609 C 126.00945 348.500609 48.328361 270.595823 48.328361 174.498164 C 48.328361 78.400504 126.00945 0.500245 221.832226 0.500245 C 317.650488 0.500245 395.331577 78.400504 395.331577 174.498164 Z M 395.331577 174.498164 " stroke="#000000" stroke-width="0.88" stroke-opacity="1" stroke-miterlimit="4"/></g><path fill="#545454" d="M 567.796875 169.5625 C 567.796875 181.476562 557.53125 191.136719 544.867188 191.136719 C 532.199219 191.136719 521.933594 181.476562 521.933594 169.5625 C 521.933594 157.648438 532.199219 147.988281 544.867188 147.988281 C 557.53125 147.988281 567.796875 157.648438 567.796875 169.5625 Z M 567.796875 169.5625 " fill-opacity="1" fill-rule="nonzero"/><path fill="#545454" d="M 418.523438 272.683594 C 419.4375 278.167969 435.6875 383.933594 435.6875 383.933594 L 494.820312 383.933594 C 494.820312 383.933594 506.59375 276.050781 506.789062 272.683594 C 512.175781 272.148438 513.425781 267.507812 505.925781 267.507812 C 495.398438 267.507812 428.730469 267.457031 421.117188 267.507812 C 413.507812 267.558594 414.339844 272.242188 418.523438 272.683594 Z M 418.523438 272.683594 " fill-opacity="1" fill-rule="nonzero"/><path fill="#545454" d="M 429.339844 245.5 C 444.304688 240.90625 450.261719 225.195312 452.703125 218.75 C 465.265625 224.441406 487.609375 229.335938 503.761719 225.652344 C 506.949219 242.410156 479.492188 242.316406 483.859375 257.582031 C 476.570312 249.5625 439.207031 268.191406 429.339844 245.5 Z M 429.339844 245.5 " fill-opacity="1" fill-rule="nonzero"/><path fill="#545454" d="M 450.976562 194.589844 L 571.261719 193.726562 C 570.742188 196.675781 600.367188 243.339844 596.359375 251.542969 C 592.820312 251.902344 538.378906 255.855469 538.378906 255.855469 C 543.664062 247.761719 527.128906 218.75 527.128906 218.75 Z M 450.976562 194.589844 " fill-opacity="1" fill-rule="nonzero"/><path fill="#545454" d="M 595.492188 258.445312 L 538.375 255.855469 C 538.375 255.855469 517.984375 379.566406 517.605469 380.980469 C 517.230469 382.398438 519.210938 383.171875 520.203125 381.84375 C 521.195312 380.519531 564.335938 311.085938 564.335938 311.085938 C 564.335938 311.085938 581.429688 380.722656 581.644531 381.84375 C 581.855469 382.964844 584.863281 382.886719 585.105469 381.84375 C 585.347656 380.800781 595.492188 258.445312 595.492188 258.445312 Z M 595.492188 258.445312 " fill-opacity="1" fill-rule="nonzero"/><path stroke-linecap="butt" transform="matrix(0.865367, 0, 0, 0.862932, 320.018072, 123.396448)" fill-opacity="1" fill="#ffffff" fill-rule="nonzero" stroke-linejoin="miter" d="M 136.861059 297.941715 L 198.359528 297.941715 C 198.359528 297.941715 217.259564 172.461141 209.459406 172.461141 C 207.635758 172.461141 123.016681 172.447561 121.260742 172.461141 C 113.343221 172.510935 136.861059 297.941715 136.861059 297.941715 Z M 136.861059 297.941715 " stroke="#000000" stroke-width="0.88" stroke-opacity="1" stroke-miterlimit="4"/><path fill="#545454" d="M 462.089844 271.105469 L 466.6875 271.105469 L 466.6875 380.980469 L 462.089844 380.980469 Z M 462.089844 271.105469 " fill-opacity="1" fill-rule="nonzero"/><path fill="#545454" d="M 484.082031 381.300781 L 479.714844 380.949219 L 486.957031 271.058594 L 491.328125 271.410156 Z M 484.082031 381.300781 " fill-opacity="1" fill-rule="nonzero"/><path fill="#545454" d="M 445.417969 381.585938 L 449.789062 381.234375 L 442.542969 271.347656 L 438.175781 271.699219 Z M 445.417969 381.585938 " fill-opacity="1" fill-rule="nonzero"/><path fill="#545454" d="M 422.855469 288.8125 L 504.488281 288.8125 L 504.488281 293.664062 L 422.855469 293.664062 Z M 422.855469 288.8125 " fill-opacity="1" fill-rule="nonzero"/><path fill="#545454" d="M 426.597656 312.394531 L 501.597656 312.394531 L 501.597656 317.25 L 426.597656 317.25 Z M 426.597656 312.394531 " fill-opacity="1" fill-rule="nonzero"/><path fill="#545454" d="M 429.484375 334.832031 L 499 334.832031 L 499 339.6875 L 429.484375 339.6875 Z M 429.484375 334.832031 " fill-opacity="1" fill-rule="nonzero"/><path fill="#545454" d="M 432.949219 357.269531 L 496.121094 357.269531 L 496.121094 362.121094 L 432.949219 362.121094 Z M 432.949219 357.269531 " fill-opacity="1" fill-rule="nonzero"/></svg>