<svg xmlns="http://www.w3.org/2000/svg" xmlns:xlink="http://www.w3.org/1999/xlink" width="800" zoomAndPan="magnify" viewBox="0 0 600 599.999999" height="800" preserveAspectRatio="xMidYMid meet" version="1.0"><defs><clipPath id="03106ec550"><path d="M 315 349 L 558 349 L 558 578.8125 L 315 578.8125 Z M 315 349 " clip-rule="nonzero"/></clipPath><clipPath id="7dc8256d03"><path d="M 252.78125 258.429688 L 347.21875 258.429688 L 347.21875 341.570312 L 252.78125 341.570312 Z M 252.78125 258.429688 " clip-rule="nonzero"/></clipPath><clipPath id="ba702bc725"><path d="M 0.78125 0.429688 L 95.21875 0.429688 L 95.21875 83.570312 L 0.78125 83.570312 Z M 0.78125 0.429688 " clip-rule="nonzero"/></clipPath><clipPath id="b8b809abde"><rect x="0" width="96" y="0" height="84"/></clipPath><clipPath id="1f6a94d215"><path d="M 1 1 L 440 1 L 440 479 L 1 479 Z M 1 1 " clip-rule="nonzero"/></clipPath><clipPath id="628d905d30"><path d="M 415.101562 1.128906 L 439.535156 23.367188 L 25.671875 478.054688 L 1.238281 455.816406 Z M 415.101562 1.128906 " clip-rule="nonzero"/></clipPath><clipPath id="ca60621d88"><path d="M 0.199219 0 L 438.679688 0 L 438.679688 477.078125 L 0.199219 477.078125 Z M 0.199219 0 " clip-rule="nonzero"/></clipPath><clipPath id="219ed826a6"><path d="M 414.101562 0.128906 L 438.535156 22.367188 L 24.671875 477.054688 L 0.238281 454.816406 Z M 414.101562 0.128906 " clip-rule="nonzero"/></clipPath><clipPath id="c59f0b2dee"><rect x="0" width="439" y="0" height="478"/></clipPath><clipPath id="260d37b6ef"><path d="M 17 29 L 468 29 L 468 494.640625 L 17 494.640625 Z M 17 29 " clip-rule="nonzero"/></clipPath><clipPath id="a09e26b705"><path d="M 467.992188 471.582031 L 444.21875 494.523438 L 17.277344 52.09375 L 41.050781 29.152344 Z M 467.992188 471.582031 " clip-rule="nonzero"/></clipPath><clipPath id="8247099a37"><path d="M 0.0390625 0.0390625 L 451 0.0390625 L 451 465.640625 L 0.0390625 465.640625 Z M 0.0390625 0.0390625 " clip-rule="nonzero"/></clipPath><clipPath id="7c6e3c20df"><path d="M 450.992188 442.582031 L 427.21875 465.523438 L 0.277344 23.09375 L 24.050781 0.152344 Z M 450.992188 442.582031 " clip-rule="nonzero"/></clipPath><clipPath id="e2e2cc911d"><rect x="0" width="451" y="0" height="466"/></clipPath><clipPath id="e7275e1720"><rect x="0" width="468" y="0" height="495"/></clipPath></defs><g clip-path="url(#03106ec550)"><path fill="#8dcc22" d="M 379.828125 396.578125 L 379.828125 349.667969 L 315.074219 463.878906 L 379.828125 578.089844 L 379.828125 530.164062 L 462.429688 530.164062 C 462.429688 530.164062 472.117188 532.710938 481.292969 515.886719 L 557.261719 384.851562 C 557.261719 384.851562 546.554688 396.578125 530.75 396.578125 Z M 379.828125 396.578125 " fill-opacity="1" fill-rule="nonzero"/></g><path fill="#8dcc22" d="M 475.933594 381.941406 L 403.609375 256.671875 L 520.046875 189.445312 L 575.617188 285.691406 C 575.617188 285.691406 591.238281 317.707031 575.617188 349.667969 C 559.8125 382 534.320312 381.941406 534.320312 381.941406 Z M 475.933594 381.941406 " fill-opacity="1" fill-rule="nonzero"/><path fill="#8dcc22" d="M 172.867188 305.589844 L 213.511719 329.007812 L 146.875 215.886719 L 15.585938 214.984375 L 57.117188 238.90625 L 15.882812 310.480469 C 15.882812 310.480469 8.839844 317.601562 18.835938 333.953125 L 94.457031 465.191406 C 94.457031 465.191406 89.640625 450.058594 97.53125 436.363281 Z M 172.867188 305.589844 " fill-opacity="1" fill-rule="nonzero"/><path fill="#8dcc22" d="M 137.574219 396.171875 L 282.226562 396.035156 L 282.351562 530.488281 L 171.214844 530.59375 C 150.898438 530.59375 133.054688 522.003906 115.78125 498.65625 C 102.355469 480.511719 101.875 458.109375 108.429688 446.761719 Z M 137.574219 396.171875 " fill-opacity="1" fill-rule="nonzero"/><path fill="#8dcc22" d="M 355.8125 170.410156 L 315.199219 193.882812 L 446.484375 192.800781 L 512.972656 79.59375 L 471.472656 103.574219 L 430.144531 32.054688 C 430.144531 32.054688 427.507812 22.394531 408.347656 22.867188 L 256.878906 22.652344 C 256.878906 22.652344 272.390625 26.054688 280.300781 39.738281 Z M 355.8125 170.410156 " fill-opacity="1" fill-rule="nonzero"/><path fill="#8dcc22" d="M 295.054688 94.523438 L 222.78125 219.824219 L 106.3125 152.644531 L 161.84375 56.371094 C 161.84375 56.371094 181.746094 26.828125 217.238281 24.363281 C 253.136719 21.871094 265.84375 43.972656 265.84375 43.972656 Z M 295.054688 94.523438 " fill-opacity="1" fill-rule="nonzero"/><g clip-path="url(#7dc8256d03)"><g transform="matrix(1, 0, 0, 1, 252, 258)"><g clip-path="url(#b8b809abde)"><g clip-path="url(#ba702bc725)"><path fill="#2e2e2e" d="M 0.78125 0.429688 L 95.285156 0.429688 L 95.285156 83.570312 L 0.78125 83.570312 Z M 0.78125 0.429688 " fill-opacity="1" fill-rule="nonzero"/></g></g></g></g><g transform="matrix(1, 0, 0, 1, 72, 36)"><g clip-path="url(#e7275e1720)"><g clip-path="url(#1f6a94d215)"><g clip-path="url(#628d905d30)"><g transform="matrix(1, 0, 0, 1, 1, 1)"><g clip-path="url(#c59f0b2dee)"><g clip-path="url(#ca60621d88)"><g clip-path="url(#219ed826a6)"><path fill="#ff3131" d="M 414.101562 0.128906 L 438.535156 22.367188 L 24.703125 477.019531 L 0.273438 454.785156 Z M 414.101562 0.128906 " fill-opacity="1" fill-rule="nonzero"/></g></g></g></g></g></g><g clip-path="url(#260d37b6ef)"><g clip-path="url(#a09e26b705)"><g transform="matrix(1, 0, 0, 1, 17, 29)"><g clip-path="url(#e2e2cc911d)"><g clip-path="url(#8247099a37)"><g clip-path="url(#7c6e3c20df)"><path fill="#ff3131" d="M 450.992188 442.582031 L 427.21875 465.523438 L 0.3125 23.125 L 24.085938 0.1875 Z M 450.992188 442.582031 " fill-opacity="1" fill-rule="nonzero"/></g></g></g></g></g></g></g></g></svg>