<svg xmlns="http://www.w3.org/2000/svg" xmlns:xlink="http://www.w3.org/1999/xlink" width="1366" zoomAndPan="magnify" viewBox="0 0 1024.5 576" height="768" preserveAspectRatio="xMidYMid meet" version="1.0"><defs><clipPath id="7fbfdacb6a"><path d="M 518 308 L 619 308 L 619 402.992188 L 518 402.992188 Z M 518 308 " clip-rule="nonzero"/></clipPath><clipPath id="f08bde782a"><path d="M 393 149 L 631 149 L 631 407 L 393 407 Z M 393 149 " clip-rule="nonzero"/></clipPath><clipPath id="ac091131a4"><path d="M 616.953125 149.140625 L 630.121094 161.125 L 407.042969 406.207031 L 393.875 394.222656 Z M 616.953125 149.140625 " clip-rule="nonzero"/></clipPath><clipPath id="4909ea0468"><path d="M 0.648438 0.109375 L 237.171875 0.109375 L 237.171875 257.261719 L 0.648438 257.261719 Z M 0.648438 0.109375 " clip-rule="nonzero"/></clipPath><clipPath id="0a33370e8a"><path d="M 223.953125 0.140625 L 237.121094 12.125 L 14.042969 257.207031 L 0.875 245.222656 Z M 223.953125 0.140625 " clip-rule="nonzero"/></clipPath><clipPath id="ef2ce16fab"><rect x="0" width="238" y="0" height="258"/></clipPath><clipPath id="0af8495701"><path d="M 402 164 L 646 164 L 646 416 L 402 416 Z M 402 164 " clip-rule="nonzero"/></clipPath><clipPath id="500ed7ba7a"><path d="M 645.457031 402.71875 L 632.644531 415.082031 L 402.519531 176.609375 L 415.332031 164.242188 Z M 645.457031 402.71875 " clip-rule="nonzero"/></clipPath><clipPath id="9b7d9748fa"><path d="M 0.285156 0.21875 L 243.523438 0.21875 L 243.523438 251.136719 L 0.285156 251.136719 Z M 0.285156 0.21875 " clip-rule="nonzero"/></clipPath><clipPath id="6c72eb648a"><path d="M 243.457031 238.71875 L 230.644531 251.082031 L 0.519531 12.609375 L 13.332031 0.242188 Z M 243.457031 238.71875 " clip-rule="nonzero"/></clipPath><clipPath id="8dcc3b1c49"><rect x="0" width="244" y="0" height="252"/></clipPath></defs><g clip-path="url(#7fbfdacb6a)"><path fill="#8dcc22" d="M 545.011719 327.933594 L 545.011719 308.535156 L 518.234375 355.765625 L 545.011719 402.992188 L 545.011719 383.175781 L 579.167969 383.175781 C 579.167969 383.175781 583.171875 384.230469 586.96875 377.269531 L 618.386719 323.082031 C 618.386719 323.082031 613.957031 327.933594 607.421875 327.933594 Z M 545.011719 327.933594 " fill-opacity="1" fill-rule="nonzero"/></g><path fill="#8dcc22" d="M 584.753906 321.878906 L 554.84375 270.078125 L 602.996094 242.277344 L 625.972656 282.078125 C 625.972656 282.078125 632.433594 295.316406 625.972656 308.535156 C 619.4375 321.90625 608.898438 321.878906 608.898438 321.878906 Z M 584.753906 321.878906 " fill-opacity="1" fill-rule="nonzero"/><path fill="#8dcc22" d="M 459.425781 290.308594 L 476.234375 299.992188 L 448.675781 253.210938 L 394.386719 252.839844 L 411.558594 262.730469 L 394.507812 292.328125 C 394.507812 292.328125 391.59375 295.273438 395.730469 302.035156 L 427 356.308594 C 427 356.308594 425.007812 350.050781 428.269531 344.386719 Z M 459.425781 290.308594 " fill-opacity="1" fill-rule="nonzero"/><path fill="#8dcc22" d="M 444.832031 327.765625 L 504.648438 327.707031 L 504.699219 383.308594 L 458.742188 383.351562 C 450.339844 383.351562 442.960938 379.800781 435.816406 370.144531 C 430.265625 362.640625 430.070312 353.378906 432.777344 348.6875 Z M 444.832031 327.765625 " fill-opacity="1" fill-rule="nonzero"/><path fill="#8dcc22" d="M 535.078125 234.40625 L 518.285156 244.113281 L 572.574219 243.664062 L 600.070312 196.851562 L 582.910156 206.765625 L 565.816406 177.191406 C 565.816406 177.191406 564.726562 173.195312 556.804688 173.390625 L 494.167969 173.304688 C 494.167969 173.304688 500.582031 174.710938 503.851562 180.371094 Z M 535.078125 234.40625 " fill-opacity="1" fill-rule="nonzero"/><path fill="#8dcc22" d="M 509.953125 203.023438 L 480.066406 254.839844 L 431.902344 227.058594 L 454.867188 187.25 C 454.867188 187.25 463.097656 175.03125 477.773438 174.011719 C 492.621094 172.980469 497.875 182.121094 497.875 182.121094 Z M 509.953125 203.023438 " fill-opacity="1" fill-rule="nonzero"/><g clip-path="url(#f08bde782a)"><g clip-path="url(#ac091131a4)"><g transform="matrix(1, 0, 0, 1, 393, 149)"><g clip-path="url(#ef2ce16fab)"><g clip-path="url(#4909ea0468)"><g clip-path="url(#0a33370e8a)"><path fill="#ff3131" d="M 223.953125 0.140625 L 237.121094 12.125 L 14.0625 257.1875 L 0.890625 245.203125 Z M 223.953125 0.140625 " fill-opacity="1" fill-rule="nonzero"/></g></g></g></g></g></g><g clip-path="url(#0af8495701)"><g clip-path="url(#500ed7ba7a)"><g transform="matrix(1, 0, 0, 1, 402, 164)"><g clip-path="url(#8dcc3b1c49)"><g clip-path="url(#9b7d9748fa)"><g clip-path="url(#6c72eb648a)"><path fill="#ff3131" d="M 243.457031 238.71875 L 230.644531 251.082031 L 0.539062 12.625 L 13.351562 0.261719 Z M 243.457031 238.71875 " fill-opacity="1" fill-rule="nonzero"/></g></g></g></g></g></g></svg>